<svg width="800" height="600" viewBox="0 0 800 600" fill="none" xmlns="http://www.w3.org/2000/svg">
  <defs>
    <linearGradient id="grad1" x1="0%" y1="0%" x2="100%" y2="100%">
      <stop offset="0%" style="stop-color:#3B82F6;stop-opacity:1" />
      <stop offset="100%" style="stop-color:#8B5CF6;stop-opacity:1" />
    </linearGradient>
  </defs>
  
  <!-- Background -->
  <rect width="800" height="600" fill="url(#grad1)"/>
  
  <!-- Geometric shapes -->
  <circle cx="200" cy="150" r="60" fill="rgba(255,255,255,0.1)"/>
  <circle cx="600" cy="450" r="80" fill="rgba(255,255,255,0.1)"/>
  <polygon points="650,100 750,100 700,200" fill="rgba(255,255,255,0.1)"/>
  <rect x="50" y="400" width="120" height="120" rx="20" fill="rgba(255,255,255,0.1)"/>
  
  <!-- Main content -->
  <g transform="translate(300, 250)">
    <!-- Rocket icon -->
    <path d="M100 0 L120 40 L140 20 L130 50 L170 60 L130 70 L140 100 L120 80 L100 120 L80 80 L60 100 L70 70 L30 60 L70 50 L60 20 L80 40 Z" 
          fill="white" opacity="0.9"/>
    
    <!-- Text -->
    <text x="100" y="160" text-anchor="middle" fill="white" font-family="Arial, sans-serif" font-size="24" font-weight="bold">
      Innovation
    </text>
    <text x="100" y="190" text-anchor="middle" fill="white" font-family="Arial, sans-serif" font-size="16" opacity="0.8">
      Building the Future
    </text>
  </g>
</svg>